<svg xmlns="http://www.w3.org/2000/svg" width="17.838" height="31.719" viewBox="0 0 17.838 31.719">
  <path id="Icon_awesome-dollar-sign" data-name="Icon awesome-dollar-sign" d="M12.96,14.459,6.27,12.5a1.827,1.827,0,0,1,.514-3.581h4.107a3.781,3.781,0,0,1,2.119.65.966.966,0,0,0,1.208-.124l2.156-2.106a1,1,0,0,0-.112-1.518A8.76,8.76,0,0,0,10.9,3.965V.991A.994.994,0,0,0,9.912,0H7.93a.994.994,0,0,0-.991.991V3.965H6.784A6.788,6.788,0,0,0,.031,11.374a7.092,7.092,0,0,0,5.191,5.984l6.35,1.859a1.827,1.827,0,0,1-.514,3.581H6.951a3.781,3.781,0,0,1-2.119-.65.966.966,0,0,0-1.208.124L1.469,24.378A1,1,0,0,0,1.58,25.9a8.76,8.76,0,0,0,5.359,1.859v2.974a.994.994,0,0,0,.991.991H9.912a.994.994,0,0,0,.991-.991V27.742a7,7,0,0,0,6.548-4.5,6.8,6.8,0,0,0-4.491-8.778Z" transform="translate(-0.003)" fill="#648f3f"/>
</svg>
