<svg xmlns="http://www.w3.org/2000/svg" width="10.685" height="19" viewBox="0 0 10.685 19">
  <path id="Icon_awesome-dollar-sign" data-name="Icon awesome-dollar-sign" d="M7.765,8.661,3.757,7.489a1.095,1.095,0,0,1,.308-2.145h2.46a2.265,2.265,0,0,1,1.269.39.579.579,0,0,0,.724-.074L9.809,4.4a.6.6,0,0,0-.067-.909,5.247,5.247,0,0,0-3.21-1.113V.594A.6.6,0,0,0,5.939,0H4.751a.6.6,0,0,0-.594.594V2.375H4.065A4.066,4.066,0,0,0,.02,6.813,4.248,4.248,0,0,0,3.13,10.4l3.8,1.113a1.095,1.095,0,0,1-.308,2.145H4.165a2.265,2.265,0,0,1-1.269-.39.579.579,0,0,0-.724.074L.881,14.6a.6.6,0,0,0,.067.909,5.247,5.247,0,0,0,3.21,1.113v1.781A.6.6,0,0,0,4.751,19H5.939a.6.6,0,0,0,.594-.594V16.618a4.192,4.192,0,0,0,3.922-2.7,4.075,4.075,0,0,0-2.69-5.258Z" transform="translate(-0.003)" fill="#648f3f"/>
</svg>
